<?xml version="1.0" encoding="UTF-8"?>
<svg id="Layer_2" data-name="Layer 2" xmlns="http://www.w3.org/2000/svg" viewBox="0 0 15 14">
  <g id="OBJECTS">
    <g>
      <path d="M7.67,2.66c-.09-.09-.24-.09-.33,0L1.82,7.93s-.07.11-.07.17v4.94c0,.53.43.96.96.96h2.88c.26,0,.48-.21.48-.48v-4.07c0-.13.11-.24.24-.24h2.4c.13,0,.24.11.24.24v4.07c0,.26.21.48.48.48h2.88c.53,0,.96-.43.96-.96v-4.94c0-.07-.03-.13-.07-.17L7.67,2.66Z"/>
      <path d="M14.84,6.63l-2.34-2.24V1c0-.28-.22-.5-.5-.5h-1.5c-.28,0-.5.22-.5.5v1l-1.81-1.73c-.17-.17-.42-.27-.69-.27s-.52.1-.69.27L.16,6.63c-.19.19-.22.5-.04.7.18.21.5.23.71.05,0,0,.01-.01.02-.02L7.33,1.16c.1-.09.25-.09.35,0l6.48,6.2c.2.19.51.18.71-.01.19-.2.18-.53-.02-.72"/>
    </g>
  </g>
</svg>