<svg width="22" height="22" viewBox="0 0 22 22" fill="none" xmlns="http://www.w3.org/2000/svg">
<path d="M17.4181 0H3.85999C1.73162 0 0 1.7318 0 3.86052V18.1398C0 20.2682 1.73162 22 3.85999 22H17.4181C19.5468 22 21.2785 20.2682 21.2785 18.1398V3.86052C21.2784 1.7318 19.5468 0 17.4181 0ZM20.1966 18.1398C20.1966 19.6716 18.9501 20.918 17.4181 20.918H3.85999C2.32826 20.918 1.08183 19.6716 1.08183 18.1398V3.86052C1.08183 2.32839 2.32826 1.08196 3.85999 1.08196H17.4181C18.9501 1.08196 20.1966 2.32839 20.1966 3.86052V18.1398Z" fill="black"/>
<path d="M16.4098 2.16406C16.2662 2.16406 16.1286 2.22108 16.0271 2.32258C15.9256 2.42407 15.8686 2.56173 15.8686 2.70526V6.85284H5.40976V2.70504C5.40595 2.56409 5.34728 2.4302 5.24624 2.33185C5.14519 2.23351 5.00976 2.17848 4.86876 2.17848C4.72776 2.17848 4.59233 2.23351 4.49129 2.33185C4.39024 2.4302 4.33157 2.56409 4.32776 2.70504V19.2952C4.33157 19.4362 4.39024 19.5701 4.49129 19.6684C4.59233 19.7668 4.72776 19.8218 4.86876 19.8218C5.00976 19.8218 5.14519 19.7668 5.24624 19.6684C5.34728 19.5701 5.40595 19.4362 5.40976 19.2952V15.1477H15.8686V19.2952C15.8724 19.4362 15.931 19.5701 16.0321 19.6684C16.1331 19.7668 16.2686 19.8218 16.4096 19.8218C16.5506 19.8218 16.686 19.7668 16.787 19.6684C16.8881 19.5701 16.9468 19.4362 16.9506 19.2952V2.70504C16.9505 2.56161 16.8935 2.42407 16.7921 2.32264C16.6907 2.2212 16.5532 2.16417 16.4098 2.16406ZM5.40976 14.0657V7.93457H15.8686V14.0657H5.40976Z" fill="black"/>
<path d="M3.06547 6.40163H1.62284C1.58703 6.40118 1.55148 6.40784 1.51826 6.42122C1.48505 6.43461 1.45482 6.45446 1.42933 6.47963C1.40385 6.50479 1.38361 6.53476 1.3698 6.56781C1.35599 6.60085 1.34888 6.63631 1.34888 6.67212C1.34888 6.70794 1.35599 6.7434 1.3698 6.77644C1.38361 6.80948 1.40385 6.83946 1.42933 6.86462C1.45482 6.88978 1.48505 6.90963 1.51826 6.92302C1.55148 6.93641 1.58703 6.94307 1.62284 6.94261H3.06547C3.13661 6.94171 3.20453 6.91281 3.25451 6.86218C3.3045 6.81155 3.33253 6.74327 3.33253 6.67212C3.33253 6.60098 3.3045 6.53269 3.25451 6.48207C3.20453 6.43144 3.13661 6.40254 3.06547 6.40163Z" fill="black"/>
<path d="M19.6556 6.40163H18.213C18.1418 6.40254 18.0739 6.43144 18.0239 6.48207C17.974 6.53269 17.9459 6.60098 17.9459 6.67212C17.9459 6.74327 17.974 6.81155 18.0239 6.86218C18.0739 6.91281 18.1418 6.94171 18.213 6.94261H19.6556C19.6914 6.94307 19.727 6.93641 19.7602 6.92302C19.7934 6.90963 19.8236 6.88978 19.8491 6.86462C19.8746 6.83946 19.8948 6.80948 19.9087 6.77644C19.9225 6.7434 19.9296 6.70794 19.9296 6.67212C19.9296 6.63631 19.9225 6.60085 19.9087 6.56781C19.8948 6.53476 19.8746 6.50479 19.8491 6.47963C19.8236 6.45446 19.7934 6.43461 19.7602 6.42122C19.727 6.40784 19.6914 6.40118 19.6556 6.40163Z" fill="black"/>
<path d="M3.0654 7.84424H1.62277C1.55101 7.84424 1.48218 7.87275 1.43143 7.9235C1.38068 7.97424 1.35217 8.04307 1.35217 8.11484C1.35217 8.18661 1.38068 8.25543 1.43143 8.30618C1.48218 8.35693 1.55101 8.38544 1.62277 8.38544H3.0654C3.13717 8.38544 3.206 8.35693 3.25674 8.30618C3.30749 8.25543 3.336 8.18661 3.336 8.11484C3.336 8.04307 3.30749 7.97424 3.25674 7.9235C3.206 7.87275 3.13717 7.84424 3.0654 7.84424Z" fill="black"/>
<path d="M19.6556 7.84424H18.213C18.1412 7.84424 18.0724 7.87275 18.0216 7.9235C17.9709 7.97424 17.9424 8.04307 17.9424 8.11484C17.9424 8.18661 17.9709 8.25543 18.0216 8.30618C18.0724 8.35693 18.1412 8.38544 18.213 8.38544H19.6556C19.7274 8.38544 19.7962 8.35693 19.847 8.30618C19.8977 8.25543 19.9262 8.18661 19.9262 8.11484C19.9262 8.04307 19.8977 7.97424 19.847 7.9235C19.7962 7.87275 19.7274 7.84424 19.6556 7.84424Z" fill="black"/>
<path d="M3.0654 9.28687H1.62277C1.55101 9.28687 1.48218 9.31537 1.43143 9.36612C1.38068 9.41687 1.35217 9.4857 1.35217 9.55747C1.35217 9.62923 1.38068 9.69806 1.43143 9.74881C1.48218 9.79956 1.55101 9.82807 1.62277 9.82807H3.0654C3.13717 9.82807 3.206 9.79956 3.25674 9.74881C3.30749 9.69806 3.336 9.62923 3.336 9.55747C3.336 9.4857 3.30749 9.41687 3.25674 9.36612C3.206 9.31537 3.13717 9.28687 3.0654 9.28687Z" fill="black"/>
<path d="M19.6556 9.28687H18.213C18.1412 9.28687 18.0724 9.31537 18.0216 9.36612C17.9709 9.41687 17.9424 9.4857 17.9424 9.55747C17.9424 9.62923 17.9709 9.69806 18.0216 9.74881C18.0724 9.79956 18.1412 9.82807 18.213 9.82807H19.6556C19.7274 9.82807 19.7962 9.79956 19.847 9.74881C19.8977 9.69806 19.9262 9.62923 19.9262 9.55747C19.9262 9.4857 19.8977 9.41687 19.847 9.36612C19.7962 9.31537 19.7274 9.28687 19.6556 9.28687Z" fill="black"/>
<path d="M3.0654 10.7295H1.62277C1.55101 10.7295 1.48218 10.758 1.43143 10.8087C1.38068 10.8595 1.35217 10.9283 1.35217 11.0001C1.35217 11.0719 1.38068 11.1407 1.43143 11.1914C1.48218 11.2422 1.55101 11.2707 1.62277 11.2707H3.0654C3.13717 11.2707 3.206 11.2422 3.25674 11.1914C3.30749 11.1407 3.336 11.0719 3.336 11.0001C3.336 10.9283 3.30749 10.8595 3.25674 10.8087C3.206 10.758 3.13717 10.7295 3.0654 10.7295Z" fill="black"/>
<path d="M19.6556 10.7295H18.213C18.1412 10.7295 18.0724 10.758 18.0216 10.8087C17.9709 10.8595 17.9424 10.9283 17.9424 11.0001C17.9424 11.0719 17.9709 11.1407 18.0216 11.1914C18.0724 11.2422 18.1412 11.2707 18.213 11.2707H19.6556C19.7274 11.2707 19.7962 11.2422 19.847 11.1914C19.8977 11.1407 19.9262 11.0719 19.9262 11.0001C19.9262 10.9283 19.8977 10.8595 19.847 10.8087C19.7962 10.758 19.7274 10.7295 19.6556 10.7295Z" fill="black"/>
<path d="M3.0654 12.1721H1.62277C1.55101 12.1721 1.48218 12.2006 1.43143 12.2514C1.38068 12.3021 1.35217 12.371 1.35217 12.4427C1.35217 12.5145 1.38068 12.5833 1.43143 12.6341C1.48218 12.6848 1.55101 12.7133 1.62277 12.7133H3.0654C3.13717 12.7133 3.206 12.6848 3.25674 12.6341C3.30749 12.5833 3.336 12.5145 3.336 12.4427C3.336 12.371 3.30749 12.3021 3.25674 12.2514C3.206 12.2006 3.13717 12.1721 3.0654 12.1721Z" fill="black"/>
<path d="M19.6556 12.1721H18.213C18.1412 12.1721 18.0724 12.2006 18.0216 12.2514C17.9709 12.3021 17.9424 12.371 17.9424 12.4427C17.9424 12.5145 17.9709 12.5833 18.0216 12.6341C18.0724 12.6848 18.1412 12.7133 18.213 12.7133H19.6556C19.7274 12.7133 19.7962 12.6848 19.847 12.6341C19.8977 12.5833 19.9262 12.5145 19.9262 12.4427C19.9262 12.371 19.8977 12.3021 19.847 12.2514C19.7962 12.2006 19.7274 12.1721 19.6556 12.1721Z" fill="black"/>
<path d="M3.06547 13.6148H1.62284C1.58703 13.6143 1.55148 13.621 1.51826 13.6344C1.48505 13.6477 1.45482 13.6676 1.42933 13.6928C1.40385 13.7179 1.38361 13.7479 1.3698 13.7809C1.35599 13.814 1.34888 13.8494 1.34888 13.8853C1.34888 13.9211 1.35599 13.9565 1.3698 13.9896C1.38361 14.0226 1.40385 14.0526 1.42933 14.0778C1.45482 14.1029 1.48505 14.1228 1.51826 14.1362C1.55148 14.1495 1.58703 14.1562 1.62284 14.1557H3.06547C3.13661 14.1548 3.20453 14.1259 3.25451 14.0753C3.3045 14.0247 3.33253 13.9564 3.33253 13.8853C3.33253 13.8141 3.3045 13.7458 3.25451 13.6952C3.20453 13.6446 3.13661 13.6157 3.06547 13.6148Z" fill="black"/>
<path d="M19.6556 13.6148H18.213C18.1418 13.6157 18.0739 13.6446 18.0239 13.6952C17.974 13.7458 17.9459 13.8141 17.9459 13.8853C17.9459 13.9564 17.974 14.0247 18.0239 14.0753C18.0739 14.1259 18.1418 14.1548 18.213 14.1557H19.6556C19.6914 14.1562 19.727 14.1495 19.7602 14.1362C19.7934 14.1228 19.8236 14.1029 19.8491 14.0778C19.8746 14.0526 19.8948 14.0226 19.9087 13.9896C19.9225 13.9565 19.9296 13.9211 19.9296 13.8853C19.9296 13.8494 19.9225 13.814 19.9087 13.7809C19.8948 13.7479 19.8746 13.7179 19.8491 13.6928C19.8236 13.6676 19.7934 13.6477 19.7602 13.6344C19.727 13.621 19.6914 13.6143 19.6556 13.6148Z" fill="black"/>
<path d="M3.06547 15.0574H1.62284C1.58703 15.0569 1.55148 15.0636 1.51826 15.077C1.48505 15.0904 1.45482 15.1102 1.42933 15.1354C1.40385 15.1606 1.38361 15.1905 1.3698 15.2236C1.35599 15.2566 1.34888 15.2921 1.34888 15.3279C1.34888 15.3637 1.35599 15.3992 1.3698 15.4322C1.38361 15.4652 1.40385 15.4952 1.42933 15.5204C1.45482 15.5455 1.48505 15.5654 1.51826 15.5788C1.55148 15.5922 1.58703 15.5988 1.62284 15.5984H3.06547C3.13661 15.5975 3.20453 15.5686 3.25451 15.5179C3.3045 15.4673 3.33253 15.399 3.33253 15.3279C3.33253 15.2567 3.3045 15.1885 3.25451 15.1378C3.20453 15.0872 3.13661 15.0583 3.06547 15.0574Z" fill="black"/>
<path d="M19.6556 15.0574H18.213C18.1418 15.0583 18.0739 15.0872 18.0239 15.1378C17.974 15.1885 17.9459 15.2567 17.9459 15.3279C17.9459 15.399 17.974 15.4673 18.0239 15.5179C18.0739 15.5686 18.1418 15.5975 18.213 15.5984H19.6556C19.6914 15.5988 19.727 15.5922 19.7602 15.5788C19.7934 15.5654 19.8236 15.5455 19.8491 15.5204C19.8746 15.4952 19.8948 15.4652 19.9087 15.4322C19.9225 15.3992 19.9296 15.3637 19.9296 15.3279C19.9296 15.2921 19.9225 15.2566 19.9087 15.2236C19.8948 15.1905 19.8746 15.1606 19.8491 15.1354C19.8236 15.1102 19.7934 15.0904 19.7602 15.077C19.727 15.0636 19.6914 15.0569 19.6556 15.0574Z" fill="black"/>
<path d="M3.06547 16.5H1.62284C1.58703 16.4996 1.55148 16.5062 1.51826 16.5196C1.48505 16.533 1.45482 16.5529 1.42933 16.578C1.40385 16.6032 1.38361 16.6332 1.3698 16.6662C1.35599 16.6992 1.34888 16.7347 1.34888 16.7705C1.34888 16.8063 1.35599 16.8418 1.3698 16.8748C1.38361 16.9079 1.40385 16.9378 1.42933 16.963C1.45482 16.9882 1.48505 17.008 1.51826 17.0214C1.55148 17.0348 1.58703 17.0415 1.62284 17.041H3.06547C3.13661 17.0401 3.20453 17.0112 3.25451 16.9606C3.3045 16.9099 3.33253 16.8417 3.33253 16.7705C3.33253 16.6994 3.3045 16.6311 3.25451 16.5805C3.20453 16.5298 3.13661 16.5009 3.06547 16.5Z" fill="black"/>
<path d="M19.6556 16.5H18.213C18.1418 16.5009 18.0739 16.5298 18.0239 16.5805C17.974 16.6311 17.9459 16.6994 17.9459 16.7705C17.9459 16.8417 17.974 16.9099 18.0239 16.9606C18.0739 17.0112 18.1418 17.0401 18.213 17.041H19.6556C19.6914 17.0415 19.727 17.0348 19.7602 17.0214C19.7934 17.008 19.8236 16.9882 19.8491 16.963C19.8746 16.9378 19.8948 16.9079 19.9087 16.8748C19.9225 16.8418 19.9296 16.8063 19.9296 16.7705C19.9296 16.7347 19.9225 16.6992 19.9087 16.6662C19.8948 16.6332 19.8746 16.6032 19.8491 16.578C19.8236 16.5529 19.7934 16.533 19.7602 16.5196C19.727 16.5062 19.6914 16.4996 19.6556 16.5Z" fill="black"/>
<path d="M3.06547 17.9426H1.62284C1.58703 17.9422 1.55148 17.9489 1.51826 17.9622C1.48505 17.9756 1.45482 17.9955 1.42933 18.0206C1.40385 18.0458 1.38361 18.0758 1.3698 18.1088C1.35599 18.1419 1.34888 18.1773 1.34888 18.2131C1.34888 18.249 1.35599 18.2844 1.3698 18.3175C1.38361 18.3505 1.40385 18.3805 1.42933 18.4056C1.45482 18.4308 1.48505 18.4506 1.51826 18.464C1.55148 18.4774 1.58703 18.4841 1.62284 18.4836H3.06547C3.13661 18.4827 3.20453 18.4538 3.25451 18.4032C3.3045 18.3526 3.33253 18.2843 3.33253 18.2131C3.33253 18.142 3.3045 18.0737 3.25451 18.0231C3.20453 17.9725 3.13661 17.9436 3.06547 17.9426Z" fill="black"/>
<path d="M19.6556 17.9426H18.213C18.1418 17.9436 18.0739 17.9725 18.0239 18.0231C17.974 18.0737 17.9459 18.142 17.9459 18.2131C17.9459 18.2843 17.974 18.3526 18.0239 18.4032C18.0739 18.4538 18.1418 18.4827 18.213 18.4836H19.6556C19.6914 18.4841 19.727 18.4774 19.7602 18.464C19.7934 18.4506 19.8236 18.4308 19.8491 18.4056C19.8746 18.3805 19.8948 18.3505 19.9087 18.3175C19.9225 18.2844 19.9296 18.249 19.9296 18.2131C19.9296 18.1773 19.9225 18.1419 19.9087 18.1088C19.8948 18.0758 19.8746 18.0458 19.8491 18.0206C19.8236 17.9955 19.7934 17.9756 19.7602 17.9622C19.727 17.9489 19.6914 17.9422 19.6556 17.9426Z" fill="black"/>
<path d="M3.06542 19.3853H2.34409C2.27295 19.3862 2.20503 19.4151 2.15504 19.4657C2.10506 19.5163 2.07703 19.5846 2.07703 19.6557C2.07703 19.7269 2.10506 19.7952 2.15504 19.8458C2.20503 19.8964 2.27295 19.9253 2.34409 19.9262H3.06542C3.13657 19.9253 3.20448 19.8964 3.25447 19.8458C3.30446 19.7952 3.33249 19.7269 3.33249 19.6557C3.33249 19.5846 3.30446 19.5163 3.25447 19.4657C3.20448 19.4151 3.13657 19.3862 3.06542 19.3853Z" fill="black"/>
<path d="M18.9343 19.3853H18.213C18.1418 19.3862 18.0739 19.4151 18.0239 19.4657C17.974 19.5163 17.9459 19.5846 17.9459 19.6557C17.9459 19.7269 17.974 19.7952 18.0239 19.8458C18.0739 19.8964 18.1418 19.9253 18.213 19.9262H18.9343C19.0055 19.9253 19.0734 19.8964 19.1234 19.8458C19.1734 19.7952 19.2014 19.7269 19.2014 19.6557C19.2014 19.5846 19.1734 19.5163 19.1234 19.4657C19.0734 19.4151 19.0055 19.3862 18.9343 19.3853Z" fill="black"/>
<rect x="5" y="8" width="11" height="6" fill="black"/>
</svg>
