<svg id="Layer_1" data-name="Layer 1" xmlns="http://www.w3.org/2000/svg" viewBox="0 0 185.68 181"><defs><style>.cls-1{fill:#020202;}</style></defs><path d="M1.47,87.67c.14-9.92,3.85-18,12.58-23.22,3.31-2,6.64-2.15,10,.75,4.69,4,9.79,7.59,14.72,11.34,5.82,4.43,6.94,8.57,4.08,15.08-4,9.27-3.94,10.2,3.08,17.07,10.2,10,20.77,19.5,32.6,27.55,7,4.77,14.17,7,22.32,2.6,6.71-3.63,12.81-2.5,18.31,2.89,3.77,3.71,7.85,7.11,11.81,10.62,3.45,3.06,3.42,6.5,1.32,10.3-7.35,13.27-18,17.41-33.74,13-16.91-4.77-31.35-14.16-45.2-24.51C35.88,138,19.91,123.34,7.13,105.49,3.37,100.24,1.14,94.34,1.47,87.67Z"/><path class="cls-1" d="M130.29,92.07c2.52-.62,4.44-.77,6.27,2,2.89,4.42,7.53,3.92,11.82,2.38,2.23-.8,4.1-2.56,3.74-5.43-.33-2.61-2.3-3.17-4.5-4-3.33-1.19-6.84-.52-10.18-1.82-7.54-2.94-9.43-10.8-3.67-16.46,7-6.93,18.9-4.23,22.78,5.6-2.41.74-4.28,1.53-6.25-1.35-1.86-2.73-5-3.38-8.31-2.66s-6.23,2.06-6.19,5.74,3,4.46,6.21,4.69a46.17,46.17,0,0,1,5.93,1c4.95,1,9,3.2,9.67,8.82.58,4.78-2.52,8.91-8,11C140.64,105.19,132.25,101.05,130.29,92.07Z"/><path class="cls-1" d="M68.73,102.68c-5.38-.22-10-1.84-12.31-7.21-.52-1.17-2.2-2.85-.06-3.55C57.63,91.5,59.82,90.56,61,93,63.46,98,68,98,72.43,97c2.64-.57,5.09-2.34,4.93-5.71-.14-3-2.42-3.44-4.8-4.25-3.33-1.14-6.85-.48-10.18-1.82-6.94-2.79-8.94-10.32-3.93-15.86,5.68-6.27,18.3-5.54,21.93,1.39.58,1.09,2.38,2.81.77,3.77-1.35.81-3.51,1.63-5.12-.84-2.76-4.22-7-4.24-11.18-2.63-2.18.85-4.21,2.61-3.86,5.4s2.37,3.89,4.94,4.27c2.17.32,4.32.73,6.48,1.08,6.86,1.11,10.49,4.47,10.48,9.7S78.17,101.71,72,102.65A21.22,21.22,0,0,1,68.73,102.68Z"/><path class="cls-1" d="M106.33,64.38A19.33,19.33,0,0,0,87.15,83.84c0,11.3,7.84,19.17,19.1,19.18,11,0,19.54-8.38,19.51-19.12A19.9,19.9,0,0,0,106.33,64.38Zm-.07,33.48A13.67,13.67,0,0,1,92.54,84c0-7.51,6.15-14,13.49-14.17s14.29,6.74,14.23,14.23A14.35,14.35,0,0,1,106.26,97.86Z"/><path d="M29.4,62.65S44.68,26.34,85.34,18.58C128.29,10.39,152,42.31,152,42.31s26.66,22.48,17.23,59.61c-9,35.6-34.47,44.36-34.47,44.36l7.63,11s34.19-18.37,40.69-57.36-16.67-63-16.67-63S136.2-2.33,87.32,4.45s-70.06,51.7-70.06,51.7Z"/></svg>