<svg width="24" height="17" viewBox="0 0 24 17" fill="none" xmlns="http://www.w3.org/2000/svg">
<path d="M3.18982 5.25262C2.9904 4.78743 2.88927 4.2924 2.88927 3.78126C2.88927 3.27012 2.9904 2.7751 3.18982 2.30991C3.3828 1.85983 3.65941 1.4553 4.01193 1.10752C4.36451 0.759735 4.77459 0.486862 5.23082 0.296491C5.70233 0.0997615 6.20414 0 6.72232 0C7.24049 0 7.7423 0.0997615 8.21382 0.296491C8.67006 0.486876 9.08013 0.759735 9.43266 1.10749C9.78521 1.45529 10.0618 1.85982 10.2548 2.3099C10.2636 2.33051 10.272 2.35125 10.2805 2.37198C10.0438 2.42969 9.81158 2.50582 9.58504 2.60033C9.0278 2.83285 8.52714 3.1659 8.09692 3.59026C7.66681 4.0146 7.32919 4.50849 7.09348 5.05825C6.84962 5.62709 6.72596 6.23174 6.72596 6.85536C6.72596 7.09393 6.74413 7.32971 6.78012 7.56178C6.76085 7.56206 6.74161 7.56248 6.7223 7.56248C6.20414 7.56248 5.70233 7.46273 5.2308 7.26599C4.77458 7.07563 4.3645 6.80277 4.01193 6.45497C3.65941 6.10723 3.3828 5.70269 3.18982 5.25262ZM15.7201 5.05825C15.964 5.62699 16.0876 6.23164 16.0876 6.85539C16.0876 7.02784 16.0781 7.1988 16.0593 7.36797C16.4498 7.49714 16.8584 7.56252 17.2777 7.56252C17.7958 7.56252 18.2976 7.46277 18.7692 7.26603C19.2254 7.07565 19.6355 6.80278 19.988 6.45501C20.3405 6.10725 20.6172 5.7027 20.8101 5.2526C21.0096 4.78746 21.1107 4.29244 21.1107 3.78126C21.1107 3.27009 21.0096 2.77506 20.8101 2.30991C20.6172 1.85983 20.3405 1.4553 19.988 1.1075C19.6355 0.759735 19.2254 0.486876 18.7692 0.296505C18.2976 0.0997752 17.7958 1.36542e-05 17.2777 1.36542e-05C16.7595 1.36542e-05 16.2577 0.0997752 15.7862 0.296505C15.3299 0.486862 14.9198 0.759735 14.5673 1.10753C14.2147 1.45531 13.9381 1.85985 13.7452 2.30993C13.6812 2.45919 13.6274 2.61157 13.5838 2.76653C14.0001 2.98236 14.38 3.25822 14.7166 3.59026C15.1468 4.01462 15.4844 4.50851 15.7201 5.05825ZM23.9968 11.6676C23.9173 11.0817 23.7592 10.5099 23.5253 9.96445C23.3555 9.56845 23.1453 9.18643 22.9005 8.82899C22.6578 8.4745 22.3789 8.14109 22.0717 7.83805C21.7645 7.53498 21.4265 7.2599 21.0672 7.0204C21.0654 7.0192 21.0636 7.01799 21.0618 7.0168C20.9194 6.92215 20.7294 6.94278 20.6081 7.06261C20.6074 7.06329 20.6067 7.06398 20.606 7.06466C20.1735 7.49132 19.67 7.82624 19.1096 8.06008C18.5298 8.30202 17.9134 8.42468 17.2777 8.42468C16.7987 8.42468 16.3307 8.35502 15.8811 8.21723C15.8351 8.36443 15.7814 8.50964 15.7201 8.65257C15.6288 8.86542 15.5223 9.06989 15.401 9.26521C15.4935 9.29813 15.582 9.3424 15.6648 9.39746L15.67 9.4009C16.075 9.67083 16.455 9.98012 16.8003 10.3208C17.1457 10.6615 17.4592 11.0364 17.7322 11.4349C18.0076 11.8371 18.2442 12.2671 18.4353 12.7128C18.5907 13.0753 18.7165 13.4492 18.812 13.8307C19.8971 13.695 20.9534 13.4145 21.9668 12.9916C22.6217 12.7183 23.2462 12.3911 23.8367 12.0125C23.9532 11.9378 24.0152 11.8035 23.9968 11.6676ZM6.01329 10.3208C6.35855 9.98018 6.73852 9.67089 7.14267 9.40153C7.14314 9.40122 7.14813 9.39789 7.14882 9.39743C7.23161 9.34237 7.32013 9.2981 7.41259 9.2652C7.29131 9.06988 7.18477 8.86541 7.09351 8.65253C7.0601 8.57458 7.02902 8.49595 7.00013 8.41671C6.90797 8.42196 6.81536 8.42466 6.72233 8.42466C6.08657 8.42466 5.47021 8.302 4.89037 8.06006C4.32997 7.82624 3.82652 7.49134 3.39399 7.06466C3.39329 7.06397 3.3926 7.06329 3.3919 7.0626C3.27061 6.94278 3.08056 6.92213 2.93823 7.0168C2.93642 7.01801 2.93462 7.0192 2.93281 7.0204C2.57345 7.25991 2.23548 7.53499 1.92829 7.83805C1.62107 8.14111 1.34222 8.47451 1.09948 8.82898C0.854671 9.18643 0.644459 9.56845 0.474667 9.96446C0.240802 10.5099 0.082706 11.0817 0.0032114 11.6676C-0.0152329 11.8036 0.0467782 11.9378 0.163326 12.0125C0.753859 12.3911 1.37827 12.7183 2.03325 12.9916C2.69004 13.2656 3.36483 13.4799 4.05377 13.6337C4.14148 13.3203 4.24977 13.0126 4.37835 12.7128C4.56949 12.267 4.80607 11.837 5.08149 11.4349C5.35438 11.0364 5.66789 10.6615 6.01329 10.3208ZM8.69643 4.18165C8.34392 4.52943 8.06731 4.93397 7.87433 5.38405C7.67491 5.84922 7.57378 6.34426 7.57378 6.8554C7.57378 7.36655 7.67491 7.86157 7.87433 8.32677C8.06731 8.77683 8.34392 9.18138 8.69645 9.52915C9.04901 9.87695 9.4591 10.1498 9.91532 10.3402C10.3868 10.5369 10.8887 10.6367 11.4068 10.6367C11.925 10.6367 12.4268 10.5369 12.8983 10.3402C13.3546 10.1498 13.7646 9.87692 14.1172 9.52915C14.4697 9.18138 14.7463 8.77683 14.9393 8.32675C15.1387 7.86161 15.2398 7.36657 15.2398 6.8554C15.2398 6.34423 15.1387 5.84919 14.9393 5.38405C14.7463 4.93399 14.4697 4.52943 14.1172 4.18164C13.7646 3.83387 13.3546 3.56101 12.8983 3.37064C12.4268 3.17391 11.925 3.07415 11.4068 3.07415C10.8887 3.07415 10.3868 3.17391 9.91532 3.37064C9.45908 3.561 9.04901 3.83386 8.69643 4.18165ZM17.6545 13.0386C17.4847 12.6426 17.2745 12.2606 17.0297 11.9031C16.7869 11.5486 16.508 11.2152 16.2008 10.9122C15.8936 10.6091 15.5557 10.334 15.1963 10.0945C15.1945 10.0933 15.1927 10.0921 15.1909 10.0909C15.0486 9.99628 14.8585 10.0169 14.7372 10.1367C14.7365 10.1374 14.7358 10.1381 14.7352 10.1388C14.3027 10.5655 13.7992 10.9004 13.2388 11.1342C12.6589 11.3761 12.0426 11.4988 11.4068 11.4988C10.771 11.4988 10.1547 11.3762 9.57486 11.1342C9.01447 10.9004 8.51102 10.5655 8.07848 10.1388C8.0778 10.1381 8.07709 10.1375 8.0764 10.1368C7.9551 10.0169 7.76507 9.9963 7.62273 10.0909C7.62093 10.0922 7.61912 10.0933 7.61732 10.0946C7.25796 10.3341 6.91998 10.6091 6.61279 10.9122C6.30558 11.2153 6.02673 11.5487 5.78399 11.9031C5.53918 12.2606 5.32898 12.6426 5.15917 13.0386C4.92531 13.5841 4.76722 14.1559 4.68772 14.7418C4.66927 14.8777 4.73128 15.0119 4.84783 15.0866C5.43836 15.4653 6.06276 15.7925 6.71775 16.0657C8.20342 16.6857 9.78103 17 11.4069 17C13.0326 17 14.6104 16.6857 16.0959 16.0657C16.7509 15.7925 17.3753 15.4653 17.9658 15.0866C18.0824 15.0119 18.1444 14.8777 18.126 14.7418C18.0464 14.1559 17.8883 13.584 17.6545 13.0386Z" fill="#090909"/>
</svg>
