<?xml version="1.0" encoding="UTF-8"?>
<svg id="Layer_2" data-name="Layer 2" xmlns="http://www.w3.org/2000/svg" viewBox="0 0 16 14.71">
  <defs>
    <style>
      .cls-1 {
        stroke: #000;
        stroke-miterlimit: 10;
      }
    </style>
  </defs>
  <g id="BACKGROUND">
    <path class="cls-1" d="M6.97,12.7c.16-.16.4-.21.61-.14.77.26,1.62.27,2.4.09.4-.1.79-.23,1.14-.45.17-.11.35-.23.47-.4.12-.17.16-.4.35-.51.19-.1.43-.04.64-.05.23-.02.46-.07.68-.14.43-.14.82-.39,1.1-.75.58-.72.74-1.84.35-2.68.47-.25.77-.76.79-1.29s-.21-1.05-.59-1.42c-.38-.36-.9-.56-1.43-.61.11-.45.17-.92.11-1.37-.06-.46-.25-.91-.58-1.23-.33-.33-.8-.51-1.26-.44-.26.04-.52.16-.76.06-.13-.05-.23-.16-.33-.25-.66-.6-1.66-.8-2.49-.48-.76.28-1.32.92-1.82,1.57-.11.14-.28.19-.45.15-.73-.2-1.51-.38-2.22-.16-.67.2-1.21.74-1.49,1.38-.23.53-.28,1.12-.2,1.68.03.21-.07.41-.25.51-.79.45-1.28,1.43-1.22,2.34.07.99.75,1.84,1.55,2.43.33.24.68.45.99.72.31.27.58.6.67,1,.09.4-.03.86-.36,1.1-.16.11-.36.17-.48.33-.05.06-.08.14-.07.22.03.24.32.3.54.3,1.37-.03,2.65-.56,3.62-1.51Z"/>
  </g>
</svg>