<?xml version="1.0" encoding="UTF-8"?>
<svg id="Layer_2" data-name="Layer 2" xmlns="http://www.w3.org/2000/svg" viewBox="0 0 15 12.86">
  <g id="BACKGROUND">
    <g>
      <path d="M8.95,3.64s-.02,0-.03,0h.01s0-.01,0-.01h0s.01.01.01.01Z"/>
      <path d="M8.94,3.63h0s0,0,0,0h-.01s.02,0,.03.01h-.01Z"/>
      <path d="M15,3.97c0,1.18-.63,2.02-1.36,3l-.03.05c-.13.17-.29.37-.49.58-.05-.22-.16-.42-.32-.58l-3.34-3.34c.64-.01,1.25-.26,1.72-.72.07-.07.07-.18,0-.24,0,0,0,0,0,0-.07-.06-.16-.06-.23,0-.49.47-1.17.69-1.84.6-.06,0-.12-.02-.18-.03-.05-.01-.11,0-.15.04l-.02.02-1.68,1.68c-.19.19-.44.29-.71.28-.23,0-.46-.1-.63-.26-.19-.18-.3-.43-.3-.69,0-.26.11-.5.29-.69l1.68-1.68.56-.56.47-.47c.3-.26.65-.47,1.01-.62.11-.05.23-.09.35-.13.43-.14.89-.2,1.35-.18,2.14.08,3.83,1.82,3.84,3.97Z"/>
      <path d="M3.95,7.63l-.86.86c-.16.16-.38.24-.59.24s-.43-.08-.59-.24c-.32-.32-.32-.85,0-1.18l.86-.86c.16-.16.38-.24.59-.24s.43.08.59.24c.32.32.32.85,0,1.18Z"/>
      <path d="M5.36,9.05l-.84.84c-.32.32-.85.32-1.18,0-.32-.32-.32-.85,0-1.18l.84-.84c.16-.16.37-.24.59-.24s.43.09.59.24c.32.32.32.85,0,1.18Z"/>
      <path d="M6.78,10.46l-.8.8c-.16.16-.37.24-.59.24s-.43-.09-.59-.24c-.32-.32-.32-.85,0-1.18l.8-.8c.16-.16.38-.24.59-.24s.43.08.59.24c.32.32.32.85,0,1.18Z"/>
      <path d="M8.19,11.88l-.74.74c-.16.16-.37.24-.59.24s-.43-.09-.59-.24c-.32-.32-.32-.85,0-1.18l.74-.74c.16-.16.38-.24.59-.24s.43.08.59.24c.32.32.32.85,0,1.18Z"/>
      <path d="M12.82,7.85c0,.22-.09.43-.24.59-.32.32-.85.32-1.18,0l-.02-.02-2.6-2.6h0c-.06-.01-.13,0-.18.05-.03.03-.05.08-.05.12,0,.02,0,.04.01.06h0s.05.06.05.06t0,0l2.55,2.55c.32.32.32.85,0,1.18-.32.32-.85.32-1.18,0l-.06-.06h0s-1.12-1.12-1.12-1.12l-1.3-1.3c-.07-.07-.17-.07-.24,0-.03.03-.05.08-.05.12s.02.09.05.12l2.41,2.41c.32.32.33.85.01,1.18-.24.24-.59.31-.89.19.02-.33-.09-.66-.34-.91-.22-.22-.51-.34-.83-.34-.1,0-.19.01-.28.03.02-.09.03-.18.03-.28,0-.31-.12-.61-.34-.83-.22-.22-.51-.34-.83-.34-.1,0-.19.01-.28.03.09-.38,0-.81-.31-1.11-.23-.23-.53-.34-.83-.34-.09,0-.19.01-.28.03.09-.38,0-.81-.31-1.11-.46-.46-1.2-.46-1.65,0l-.86.86s-.08.09-.12.14c-.06-.07-.11-.14-.16-.21l-.03-.05C.63,5.99,0,5.15,0,3.97,0,1.82,1.69.08,3.84,0c.05,0,.1,0,.14,0,1.3,0,2.52.63,3.25,1.68l-1.74,1.74c-.24.24-.38.57-.38.91s.13.67.38.91c.24.24.56.38.91.38.35,0,.68-.14.93-.39l1.6-1.6s.02,0,.03,0c0,0,0,0,0,0l3.61,3.61c.16.16.25.37.25.6Z"/>
    </g>
  </g>
</svg>