<?xml version="1.0" encoding="UTF-8"?>
<svg id="Layer_2" data-name="Layer 2" xmlns="http://www.w3.org/2000/svg" viewBox="0 0 21.28 22">
  <defs>
    <style>
      .cls-1 {
        fill-rule: evenodd;
      }
    </style>
  </defs>
  <g id="OBJECTS">
    <g>
      <g>
        <path class="cls-1" d="M10.64,9.55c.18,0,.32-.14.32-.32v-4.67l.72.84c.11.13.32.15.45.03.13-.11.15-.32.03-.45l-1.28-1.49c-.11-.13-.32-.15-.45-.04-.01.01-.02.02-.04.04l-1.28,1.49c-.11.13-.1.34.03.45.13.11.34.1.45-.03l.72-.83v4.67c0,.18.14.32.32.32"/>
        <path d="M12.34,6.68c-.3,0-.45,0-.56.07-.05.03-.09.07-.12.12-.07.11-.07.26-.07.56v1.81c0,.53-.43.96-.96.96s-.96-.43-.96-.96v-1.81c0-.3,0-.45-.07-.56-.03-.05-.07-.09-.12-.12-.11-.07-.26-.07-.56-.07-1.2,0-1.81,0-2.18.37-.37.37-.37.98-.37,2.18v.43c0,1.21,0,1.81.37,2.18.37.37.98.37,2.18.37h3.41c1.2,0,1.81,0,2.18-.37s.37-.98.37-2.18v-.43c0-1.21,0-1.81-.37-2.18-.37-.37-.98-.37-2.18-.37"/>
      </g>
      <g>
        <path d="M17.42,0H3.86C1.73,0,0,1.73,0,3.86v14.28c0,2.13,1.73,3.86,3.86,3.86h13.56c2.13,0,3.86-1.73,3.86-3.86V3.86c0-2.13-1.73-3.86-3.86-3.86ZM20.2,18.14c0,1.53-1.25,2.78-2.78,2.78H3.86c-1.53,0-2.78-1.25-2.78-2.78V3.86c0-1.53,1.25-2.78,2.78-2.78h13.56c1.53,0,2.78,1.25,2.78,2.78v14.28Z"/>
        <path d="M5.41,6.85V2.71c0-.14-.06-.27-.16-.37-.1-.1-.24-.15-.38-.15s-.28.05-.38.15c-.1.1-.16.23-.16.37v16.59c0,.14.06.27.16.37.1.1.24.15.38.15s.28-.05.38-.15c.1-.1.16-.23.16-.37v-4.15h10.46v4.15c0,.14.06.27.16.37.1.1.24.15.38.15s.28-.05.38-.15c.1-.1.16-.23.16-.37V2.71c0-.14-.06-.28-.16-.38-.1-.1-.24-.16-.38-.16-.14,0-.28.06-.38.16-.1.1-.16.24-.16.38v4.15h0v1.08h0v6.13H5.41v-6.13"/>
        <path d="M3.07,6.4h-1.44s-.07,0-.1.02c-.03.01-.06.03-.09.06-.03.03-.05.06-.06.09-.01.03-.02.07-.02.1s0,.07.02.1c.01.03.03.06.06.09.03.03.06.05.09.06.03.01.07.02.1.02h1.44c.07,0,.14-.03.19-.08.05-.05.08-.12.08-.19s-.03-.14-.08-.19c-.05-.05-.12-.08-.19-.08Z"/>
        <path d="M19.66,6.4h-1.44c-.07,0-.14.03-.19.08-.05.05-.08.12-.08.19s.03.14.08.19c.05.05.12.08.19.08h1.44s.07,0,.1-.02c.03-.01.06-.03.09-.06.03-.03.05-.06.06-.09.01-.03.02-.07.02-.1s0-.07-.02-.1c-.01-.03-.03-.06-.06-.09-.03-.03-.06-.05-.09-.06-.03-.01-.07-.02-.1-.02Z"/>
        <path d="M3.07,7.84h-1.44c-.07,0-.14.03-.19.08-.05.05-.08.12-.08.19s.03.14.08.19.12.08.19.08h1.44c.07,0,.14-.03.19-.08.05-.05.08-.12.08-.19s-.03-.14-.08-.19c-.05-.05-.12-.08-.19-.08Z"/>
        <path d="M19.66,7.84h-1.44c-.07,0-.14.03-.19.08-.05.05-.08.12-.08.19s.03.14.08.19c.05.05.12.08.19.08h1.44c.07,0,.14-.03.19-.08.05-.05.08-.12.08-.19s-.03-.14-.08-.19c-.05-.05-.12-.08-.19-.08Z"/>
        <path d="M3.07,9.29h-1.44c-.07,0-.14.03-.19.08-.05.05-.08.12-.08.19s.03.14.08.19.12.08.19.08h1.44c.07,0,.14-.03.19-.08.05-.05.08-.12.08-.19s-.03-.14-.08-.19c-.05-.05-.12-.08-.19-.08Z"/>
        <path d="M19.66,9.29h-1.44c-.07,0-.14.03-.19.08-.05.05-.08.12-.08.19s.03.14.08.19c.05.05.12.08.19.08h1.44c.07,0,.14-.03.19-.08.05-.05.08-.12.08-.19s-.03-.14-.08-.19c-.05-.05-.12-.08-.19-.08Z"/>
        <path d="M3.07,10.73h-1.44c-.07,0-.14.03-.19.08-.05.05-.08.12-.08.19s.03.14.08.19c.05.05.12.08.19.08h1.44c.07,0,.14-.03.19-.08.05-.05.08-.12.08-.19s-.03-.14-.08-.19c-.05-.05-.12-.08-.19-.08Z"/>
        <path d="M19.66,10.73h-1.44c-.07,0-.14.03-.19.08-.05.05-.08.12-.08.19s.03.14.08.19c.05.05.12.08.19.08h1.44c.07,0,.14-.03.19-.08s.08-.12.08-.19-.03-.14-.08-.19c-.05-.05-.12-.08-.19-.08Z"/>
        <path d="M3.07,12.17h-1.44c-.07,0-.14.03-.19.08-.05.05-.08.12-.08.19s.03.14.08.19c.05.05.12.08.19.08h1.44c.07,0,.14-.03.19-.08.05-.05.08-.12.08-.19s-.03-.14-.08-.19c-.05-.05-.12-.08-.19-.08Z"/>
        <path d="M19.66,12.17h-1.44c-.07,0-.14.03-.19.08-.05.05-.08.12-.08.19s.03.14.08.19c.05.05.12.08.19.08h1.44c.07,0,.14-.03.19-.08.05-.05.08-.12.08-.19s-.03-.14-.08-.19c-.05-.05-.12-.08-.19-.08Z"/>
        <path d="M3.07,13.61h-1.44s-.07,0-.1.02c-.03.01-.06.03-.09.06-.03.03-.05.06-.06.09-.01.03-.02.07-.02.1s0,.07.02.1c.01.03.03.06.06.09.03.03.06.05.09.06.03.01.07.02.1.02h1.44c.07,0,.14-.03.19-.08.05-.05.08-.12.08-.19s-.03-.14-.08-.19c-.05-.05-.12-.08-.19-.08Z"/>
        <path d="M19.66,13.61h-1.44c-.07,0-.14.03-.19.08-.05.05-.08.12-.08.19s.03.14.08.19c.05.05.12.08.19.08h1.44s.07,0,.1-.02c.03-.01.06-.03.09-.06.03-.03.05-.06.06-.09.01-.03.02-.07.02-.1s0-.07-.02-.1c-.01-.03-.03-.06-.06-.09-.03-.03-.06-.05-.09-.06-.03-.01-.07-.02-.1-.02Z"/>
        <path d="M3.07,15.06h-1.44s-.07,0-.1.02c-.03.01-.06.03-.09.06-.03.03-.05.06-.06.09-.01.03-.02.07-.02.1s0,.07.02.1c.01.03.03.06.06.09.03.03.06.05.09.06.03.01.07.02.1.02h1.44c.07,0,.14-.03.19-.08.05-.05.08-.12.08-.19s-.03-.14-.08-.19c-.05-.05-.12-.08-.19-.08Z"/>
        <path d="M19.66,15.06h-1.44c-.07,0-.14.03-.19.08-.05.05-.08.12-.08.19s.03.14.08.19c.05.05.12.08.19.08h1.44s.07,0,.1-.02c.03-.01.06-.03.09-.06.03-.03.05-.06.06-.09.01-.03.02-.07.02-.1s0-.07-.02-.1c-.01-.03-.03-.06-.06-.09s-.06-.05-.09-.06c-.03-.01-.07-.02-.1-.02Z"/>
        <path d="M3.07,16.5h-1.44s-.07,0-.1.02c-.03.01-.06.03-.09.06-.03.03-.05.06-.06.09-.01.03-.02.07-.02.1s0,.07.02.1c.01.03.03.06.06.09.03.03.06.05.09.06.03.01.07.02.1.02h1.44c.07,0,.14-.03.19-.08.05-.05.08-.12.08-.19s-.03-.14-.08-.19c-.05-.05-.12-.08-.19-.08Z"/>
        <path d="M19.66,16.5h-1.44c-.07,0-.14.03-.19.08-.05.05-.08.12-.08.19s.03.14.08.19c.05.05.12.08.19.08h1.44s.07,0,.1-.02c.03-.01.06-.03.09-.06s.05-.06.06-.09c.01-.03.02-.07.02-.1s0-.07-.02-.1c-.01-.03-.03-.06-.06-.09-.03-.03-.06-.04-.09-.06-.03-.01-.07-.02-.1-.02Z"/>
        <path d="M3.07,17.94h-1.44s-.07,0-.1.02c-.03.01-.06.03-.09.06-.03.03-.05.06-.06.09-.01.03-.02.07-.02.1s0,.07.02.1c.01.03.03.06.06.09.03.03.06.05.09.06.03.01.07.02.1.02h1.44c.07,0,.14-.03.19-.08.05-.05.08-.12.08-.19s-.03-.14-.08-.19c-.05-.05-.12-.08-.19-.08Z"/>
        <path d="M19.66,17.94h-1.44c-.07,0-.14.03-.19.08-.05.05-.08.12-.08.19s.03.14.08.19c.05.05.12.08.19.08h1.44s.07,0,.1-.02c.03-.01.06-.03.09-.06.03-.03.05-.06.06-.09.01-.03.02-.07.02-.1s0-.07-.02-.1c-.01-.03-.03-.06-.06-.09-.03-.03-.06-.05-.09-.06-.03-.01-.07-.02-.1-.02Z"/>
        <path d="M3.07,19.39h-.72c-.07,0-.14.03-.19.08-.05.05-.08.12-.08.19s.03.14.08.19c.05.05.12.08.19.08h.72c.07,0,.14-.03.19-.08.05-.05.08-.12.08-.19s-.03-.14-.08-.19c-.05-.05-.12-.08-.19-.08Z"/>
        <path d="M18.93,19.39h-.72c-.07,0-.14.03-.19.08-.05.05-.08.12-.08.19s.03.14.08.19c.05.05.12.08.19.08h.72c.07,0,.14-.03.19-.08.05-.05.08-.12.08-.19s-.03-.14-.08-.19c-.05-.05-.12-.08-.19-.08Z"/>
      </g>
    </g>
  </g>
</svg>